<?xml version="1.0" encoding="UTF-8" standalone="no"?>
<!DOCTYPE svg PUBLIC "-//W3C//DTD SVG 1.1//EN" "http://www.w3.org/Graphics/SVG/1.1/DTD/svg11.dtd">
<svg width="100%" height="100%" viewBox="0 0 353 335" version="1.1" xmlns="http://www.w3.org/2000/svg" xmlns:xlink="http://www.w3.org/1999/xlink" xml:space="preserve" xmlns:serif="http://www.serif.com/" style="fill-rule:evenodd;clip-rule:evenodd;stroke-linejoin:round;stroke-miterlimit:2;">
    <g transform="matrix(1,0,0,1,-4.061149,-36.514398)">
        <g id="Background" transform="matrix(1.31543,0,0,1.31543,-533,-59)">
            <path d="M587.082,219.079C584.539,221.6 556.696,249.205 546.354,237.666C529.267,218.604 574.744,161.238 573.364,157.926C552.327,107.468 548.998,108.216 548.73,89.569C548.685,86.405 565.187,52.442 595.904,102.884C596.322,103.571 607.191,124.671 607.948,124.886C607.992,124.898 655.041,54.316 673.768,77.163C688.785,95.485 633.633,158.948 637.931,167.232C639.043,169.374 678.086,220.804 656.378,235.327C637.819,247.743 605.105,200.167 604.151,200.165C602.694,200.163 602.922,200.738 587.082,219.079Z" style="fill:rgb(19,108,194);fill-opacity:1;"/>
            <g transform="matrix(1,0,0,1,-134.230347,0.683554)">
                <path d="M587.082,219.079C584.539,221.6 556.696,249.205 546.354,237.666C529.267,218.604 574.744,161.238 573.364,157.926C552.327,107.468 548.998,108.216 548.73,89.569C548.685,86.405 565.187,52.442 595.904,102.884C596.322,103.571 607.191,124.671 607.948,124.886C607.992,124.898 655.041,54.316 673.768,77.163C688.785,95.485 633.633,158.948 637.931,167.232C639.043,169.374 678.086,220.804 656.378,235.327C637.819,247.743 605.105,200.167 604.151,200.165C602.694,200.163 602.922,200.738 587.082,219.079Z" style="fill:rgb(19,108,194);fill-opacity:1;"/>
            </g>
            <path d="M656.447,241.55C655.474,242.468 642.945,305.204 566.962,323.362C559.509,325.142 543.699,328.424 518.544,326.149C428.772,318.031 412.066,245.426 412.206,245.412C415.925,245.043 438.215,244.326 440.501,244.455C442.099,244.544 450.213,286.975 503.528,300.414C555.223,313.445 608.436,292.478 624.87,242.685C625.379,241.143 624.87,242.685 624.87,242.685C624.87,242.685 653.761,240.951 656.447,241.55Z" style="fill:rgb(18,107,193);fill-opacity:0.99;"/>
        </g>
    </g>
</svg>
