<?xml version="1.0" encoding="UTF-8" standalone="no"?>
<!DOCTYPE svg PUBLIC "-//W3C//DTD SVG 1.1//EN" "http://www.w3.org/Graphics/SVG/1.1/DTD/svg11.dtd">
<svg width="100%" height="100%" viewBox="0 0 2188 2188" version="1.1" xmlns="http://www.w3.org/2000/svg" xmlns:xlink="http://www.w3.org/1999/xlink" xml:space="preserve" xmlns:serif="http://www.serif.com/" style="fill-rule:evenodd;clip-rule:evenodd;stroke-linejoin:round;stroke-miterlimit:2;">
    <g transform="matrix(5.444035,0,0,5.555366,143.26105,88.944198)">
        <path d="M174.593,-6.635C280.197,-6.635 365.934,77.384 365.934,180.871C365.934,284.359 280.197,368.378 174.593,368.378C68.989,368.378 -16.748,284.359 -16.748,180.871C-16.748,77.384 68.989,-6.635 174.593,-6.635ZM219.523,199.748C235.47,181.653 235.241,181.086 236.707,181.088C237.668,181.09 270.604,228.028 289.289,215.779C311.144,201.45 271.836,150.709 270.717,148.596C266.389,140.423 321.916,77.81 306.797,59.733C287.943,37.192 240.575,106.829 240.53,106.817C239.768,106.605 228.825,85.787 228.405,85.11C197.479,35.343 180.865,68.851 180.911,71.973C181.18,90.37 184.532,89.632 205.712,139.414C207.101,142.682 161.316,199.28 178.518,218.086C188.931,229.471 216.962,202.236 219.523,199.748ZM84.382,200.423C100.329,182.327 100.1,181.76 101.567,181.762C102.527,181.764 135.463,228.703 154.148,216.453C176.003,202.125 136.695,151.384 135.576,149.27C131.249,141.097 186.775,78.484 171.656,60.408C152.802,37.867 105.434,107.503 105.39,107.491C104.627,107.279 93.685,86.462 93.264,85.784C62.338,36.018 45.725,69.526 45.77,72.647C46.04,91.045 49.391,90.307 70.571,140.089C71.96,143.356 26.175,199.954 43.378,218.761C53.79,230.145 81.822,202.91 84.382,200.423ZM289.358,221.918C286.654,221.327 257.567,223.038 257.567,223.038C241.022,272.164 187.448,292.85 135.402,279.994C81.725,266.735 73.556,224.872 71.948,224.785C69.646,224.657 47.205,225.365 43.461,225.729C43.32,225.743 60.139,297.375 150.52,305.384C175.845,307.629 191.763,304.391 199.266,302.635C275.765,284.72 288.379,222.824 289.358,221.918Z" style="fill:rgb(19,108,194);"/>
    </g>
</svg>
